<svg xmlns="http://www.w3.org/2000/svg" viewBox="0 0 64 64" role="img" aria-label="Cancha Nica"><title>Cancha Nica</title><defs>
  <radialGradient id="cnBg" cx="50%" cy="46%" r="78%"><stop offset="0" stop-color="#0C5E34"/><stop offset=".52" stop-color="#06432A"/><stop offset="1" stop-color="#02231C"/></radialGradient>
  <linearGradient id="cnOro" x1="0" y1="0" x2="0" y2="1"><stop offset="0" stop-color="#F2D67A"/><stop offset=".42" stop-color="#DDB34E"/><stop offset="1" stop-color="#A5761F"/></linearGradient>
  <linearGradient id="cnOroC" x1="0" y1="0" x2="0" y2="1"><stop offset="0" stop-color="#F8E6A6"/><stop offset="1" stop-color="#D4A93F"/></linearGradient>
  <linearGradient id="cnVer" x1="0" y1="0" x2="0" y2="1"><stop offset="0" stop-color="#7DBD43"/><stop offset="1" stop-color="#4B8B2D"/></linearGradient>
  <linearGradient id="cnLosa" x1="0" y1="0" x2="0" y2="1"><stop offset="0" stop-color="#14522C"/><stop offset="1" stop-color="#08311A"/></linearGradient>
  <radialGradient id="cnBalon" cx=".36" cy=".3" r=".9"><stop offset="0" stop-color="#FFFFFF"/><stop offset=".45" stop-color="#F1F5F2"/><stop offset=".85" stop-color="#CDD6D0"/><stop offset="1" stop-color="#A9B4AD"/></radialGradient></defs><g transform="scale(.25)"><g transform="translate(-13.8 45) scale(1.05)">
  
  <g transform="rotate(-8 70 62)">
    <rect x="26" y="22" width="96" height="84" rx="8" fill="#02120A" fill-opacity=".38" transform="translate(3 4)"/>
    <rect x="24" y="20" width="96" height="84" rx="8" fill="#F5F8F5"/>
    <rect x="24" y="20" width="96" height="84" rx="8" fill="none" stroke="#C9D4CB" stroke-width="1.4"/>
    <rect x="58" y="13" width="28" height="13" rx="5" fill="#AEB9B0"/><rect x="63" y="16.5" width="18" height="6" rx="3" fill="#7E8B81"/>
    <g fill="none" stroke="#1E2B23" stroke-width="3.2" stroke-linecap="round">
      <path d="M37.8 39.8l8.4 8.4M46.2 39.8l-8.4 8.4"/><path d="M91.8 35.8l8.4 8.4M100.2 35.8l-8.4 8.4"/><path d="M45.8 77.8l8.4 8.4M54.2 77.8l-8.4 8.4"/>
      <circle cx="68" cy="52" r="5"/><circle cx="92" cy="70" r="5"/><circle cx="36" cy="66" r="5"/>
    </g>
    <g fill="none" stroke="#1E2B23" stroke-width="2.4" stroke-linecap="round" stroke-linejoin="round">
      <path d="M48 50C54 54 58 55 62 54"/><path d="M59 50l3.5 4l-5 1.4"/>
      <path d="M95 47C95 54 94 59 92 63"/><path d="M89 59l3 4.5l3.6-3.6"/>
    </g>
  </g>
  
  <path d="M46 134L238 128L238 137L46 143Z" fill="url(#cnLosa)"/>
  <path d="M196 67L238 128L238 137L196 70Z" fill="#0A3F1E" opacity=".75"/>
  <path d="M84 72L98 71.38L70 133.25L46 134Z" fill="#6CA53C"/><path d="M98 71.38L112 70.75L94 132.5L70 133.25Z" fill="#5B9534"/><path d="M112 70.75L126 70.13L118 131.75L94 132.5Z" fill="#6CA53C"/><path d="M126 70.13L140 69.5L142 131L118 131.75Z" fill="#5B9534"/><path d="M140 69.5L154 68.88L166 130.25L142 131Z" fill="#6CA53C"/><path d="M154 68.88L168 68.25L190 129.5L166 130.25Z" fill="#5B9534"/><path d="M168 68.25L182 67.63L214 128.75L190 129.5Z" fill="#6CA53C"/><path d="M182 67.63L196 67L238 128L214 128.75Z" fill="#5B9534"/>
  <g fill="none" stroke="#FFFFFF" stroke-linecap="round" stroke-linejoin="round" stroke-opacity=".96">
    <path d="M84 72L196 67L238 128L46 134Z" stroke-width="2.3"/>
    <g stroke-width="1.7">
      <path d="M140 69.5L142 131"/>
      <path d="M156.2 99.7L156.33 101.31L156.19 102.9L155.76 104.44L155.06 105.92L154.08 107.29L152.83 108.55L151.34 109.66L149.64 110.62L147.75 111.4L145.72 111.98L143.59 112.37L141.4 112.55L139.21 112.52L137.05 112.28L134.99 111.83L133.05 111.19L131.29 110.35L129.73 109.35L128.41 108.18L127.34 106.88L126.54 105.47L126.02 103.97L125.78 102.4L125.8 100.8L126.08 99.19L126.61 97.59L127.37 96.04L128.33 94.57L129.47 93.19L130.77 91.93L132.2 90.82L133.75 89.86L135.38 89.09L137.08 88.51L138.83 88.12L140.6 87.95L142.38 87.99L144.15 88.23L145.88 88.68L147.56 89.33L149.16 90.17L150.67 91.17L152.04 92.34L153.27 93.63L154.32 95.04L155.18 96.54L155.81 98.1L156.2 99.7"/>
      <path d="M76.4 84.4L98.16 83.52L83.52 120.61L53.6 121.6M70.32 94.32L78.77 94L69.47 111.34L59.68 111.68"/><path d="M204.4 79.2L182.64 80.08L199.68 116.79L229.6 115.8M211.12 88.96L202.67 89.28L213.09 106.38L222.88 106.04"/>
    </g>
  </g>
  <circle cx="141" cy="100.25" r="1.8" fill="#FFFFFF"/>
  
  <ellipse cx="173.95" cy="118" rx="17.85" ry="5.1" fill="#03180B" fill-opacity=".5"/>
  
  <g transform="translate(168 88) scale(17)">
    <defs><clipPath id="cnBalonClip"><circle r="1"/></clipPath></defs>
    <circle r="1" fill="url(#cnBalon)"/>
    <g clip-path="url(#cnBalonClip)">
      <path d="M0 -0.27L0.26 -0.08L0.16 0.22L-0.16 0.22L-0.26 -0.08Z" fill="#0B1510" stroke="#0B1510" stroke-width="0.03" stroke-linejoin="round"/>
      <path d="M0 -0.73L-0.26 -0.92L-0.16 -1.22L0.16 -1.22L0.26 -0.92Z" fill="#0B1510" stroke="#0B1510" stroke-width="0.03" stroke-linejoin="round"/><path d="M0.69 -0.23L0.79 -0.53L1.11 -0.53L1.21 -0.23L0.95 -0.04Z" fill="#0B1510" stroke="#0B1510" stroke-width="0.03" stroke-linejoin="round"/><path d="M0.43 0.59L0.75 0.59L0.84 0.89L0.59 1.08L0.33 0.89Z" fill="#0B1510" stroke="#0B1510" stroke-width="0.03" stroke-linejoin="round"/><path d="M-0.43 0.59L-0.33 0.89L-0.59 1.08L-0.84 0.89L-0.75 0.59Z" fill="#0B1510" stroke="#0B1510" stroke-width="0.03" stroke-linejoin="round"/><path d="M-0.69 -0.23L-0.95 -0.04L-1.21 -0.23L-1.11 -0.53L-0.79 -0.53Z" fill="#0B1510" stroke="#0B1510" stroke-width="0.03" stroke-linejoin="round"/>
      <path d="M0 -0.27L0 -0.73M-0.26 -0.92L0.95 -0.04M0.26 -0.08L0.69 -0.23M0.79 -0.53L0.33 0.89M0.16 0.22L0.43 0.59M0.75 0.59L-0.75 0.59M-0.16 0.22L-0.43 0.59M-0.33 0.89L-0.79 -0.53M-0.26 -0.08L-0.69 -0.23M-0.95 -0.04L0.26 -0.92" fill="none" stroke="#0B1510" stroke-width="0.06" stroke-linecap="round"/>
      <ellipse cx="-0.4" cy="-0.5" rx="0.34" ry="0.2" fill="#FFFFFF" fill-opacity=".6" transform="rotate(-35 -0.4 -0.5)"/>
    </g>
    <circle r="1" fill="none" stroke="#08140D" stroke-width="0.11"/>
  </g>
  
  <ellipse cx="128" cy="71.5" rx="24" ry="4.4" fill="#03180B" fill-opacity=".42"/>
  <g transform="translate(102 9) scale(0.52)">
  <g>
    <path d="M20 22H6C6 50 16 62 34 64" fill="none" stroke="url(#cnOro)" stroke-width="9" stroke-linecap="round" stroke-linejoin="round"/>
    <path d="M80 22H94C94 50 84 62 66 64" fill="none" stroke="url(#cnOro)" stroke-width="9" stroke-linecap="round" stroke-linejoin="round"/>
    <path d="M20 22H6C6 50 16 62 34 64" fill="none" stroke="#94681C" stroke-opacity=".35" stroke-width="1.1" stroke-linecap="round" transform="translate(0 4.6)"/>
    <path d="M43 76H57V88C57 92 60 95 63 97H37C40 95 43 92 43 88Z" fill="url(#cnOro)" stroke="#94681C" stroke-width="1.2" stroke-linejoin="round"/>
    <path d="M16 10H84V40C84 63 68 76 50 76C32 76 16 63 16 40Z" fill="url(#cnOro)" stroke="#94681C" stroke-width="1.4" stroke-linejoin="round"/>
    <path d="M72 18H79V40C79 52 75 61 68 67C70 59 72 50 72 40Z" fill="#94681C" fill-opacity=".3"/>
    <path d="M24 18H34V42C34 54 39 62 46 68C32 64 24 54 24 42Z" fill="#FFFFFF" fill-opacity=".45"/>
    <rect x="11" y="4" width="78" height="12" rx="6" fill="url(#cnOroC)" stroke="#94681C" stroke-width="1.3"/>
    <path d="M50 28L54.6 37.4L65 38.9L57.5 46.2L59.3 56.5L50 51.6L40.7 56.5L42.5 46.2L35 38.9L45.4 37.4Z" fill="#A8791F" fill-opacity=".85"/>
    <rect x="25" y="97" width="50" height="11" rx="4.5" fill="url(#cnOro)" stroke="#94681C" stroke-width="1.2"/>
    <rect x="18" y="108" width="64" height="10" rx="5" fill="url(#cnOroC)" stroke="#94681C" stroke-width="1.2"/>
  </g></g>
  
  <g transform="translate(231 46)">
    <path d="M-16.5 -19.5H16.5V3.12C16.5 11.7 0 19.5 0 19.5C0 19.5 -16.5 11.7 -16.5 3.12Z" fill="#03180B" fill-opacity=".35" transform="translate(1.5 2.5)"/>
    <path d="M-16.5 -19.5H16.5V3.12C16.5 11.7 0 19.5 0 19.5C0 19.5 -16.5 11.7 -16.5 3.12Z" fill="url(#cnOro)" stroke="#8C641C" stroke-width="1" stroke-linejoin="round"/>
    <path d="M-12.25 -14.75H12.25V2.36C12.25 8.85 0 14.75 0 14.75C0 14.75 -12.25 8.85 -12.25 2.36Z" fill="url(#cnOroC)" stroke="#A8791F" stroke-width=".8" stroke-linejoin="round" transform="translate(0 -.6)"/>
    <path d="M0 -8.2L2.1 -3.4L7.3 -3L3.3 .4L4.6 5.5L0 2.8L-4.6 5.5L-3.3 .4L-7.3 -3L-2.1 -3.4Z" fill="#A8791F" fill-opacity=".85" transform="translate(0 -.4)"/>
  </g>
  
  <g transform="translate(217 104)">
    <path d="M-17.5 -20.5H17.5V3.28C17.5 12.3 0 20.5 0 20.5C0 20.5 -17.5 12.3 -17.5 3.28Z" fill="#03180B" fill-opacity=".38" transform="translate(1.5 2.5)"/>
    <path d="M-17.5 -20.5H17.5V3.28C17.5 12.3 0 20.5 0 20.5C0 20.5 -17.5 12.3 -17.5 3.28Z" fill="#F5F8F5" stroke="#F5F8F5" stroke-width="1" stroke-linejoin="round"/>
    <path d="M-13.5 -16.25H13.5V2.6C13.5 9.75 0 16.25 0 16.25C0 16.25 -13.5 9.75 -13.5 2.6Z" fill="url(#cnVer)" transform="translate(0 -.5)"/>
    <path d="M-7.6 -.6L-2.6 4.6L7.8 -6.2" fill="none" stroke="#FFFFFF" stroke-width="4.4" stroke-linecap="round" stroke-linejoin="round" transform="translate(0 -.8)"/>
  </g></g></g></svg>
